<svg xmlns="http://www.w3.org/2000/svg" width="27" height="27" viewBox="0 0 27 27">
  <defs>
    <style>
      .cls-1, .cls-2 {
        fill: #0f0c0d;
      }

      .cls-1 {
        fill-rule: evenodd;
      }
    </style>
  </defs>
  <g id="Github" transform="translate(-290.195 -58.431)">
    <path id="Path_2" data-name="Path 2" class="cls-1" d="M303.7,58.431A13.6,13.6,0,0,0,290.37,70.055a13.874,13.874,0,0,0,9.062,15.35c.674.128.921-.3.921-.666,0-.33-.013-1.42-.019-2.577-3.752.837-4.544-1.633-4.544-1.633a3.642,3.642,0,0,0-1.5-2.025c-1.224-.859.092-.841.092-.841a2.834,2.834,0,0,1,2.068,1.426,2.83,2.83,0,0,0,3.925,1.151,2.98,2.98,0,0,1,.856-1.851c-3-.35-6.145-1.536-6.145-6.838a5.436,5.436,0,0,1,1.389-3.714,5.094,5.094,0,0,1,.131-3.663s1.132-.372,3.71,1.419a12.474,12.474,0,0,1,6.755,0c2.574-1.791,3.706-1.419,3.706-1.419a5.087,5.087,0,0,1,.132,3.663,5.425,5.425,0,0,1,1.388,3.714c0,5.316-3.156,6.486-6.159,6.829a3.361,3.361,0,0,1,.915,2.563c0,1.852-.016,3.342-.016,3.8,0,.369.243.8.927.664a13.874,13.874,0,0,0,9.052-15.351A13.6,13.6,0,0,0,303.7,58.435Z" transform="translate(0 0)"/>
    <path id="Path_3" data-name="Path 3" class="cls-2" d="M311.835,144.338c-.029.067-.134.087-.229.041s-.152-.134-.12-.2a.171.171,0,0,1,.231-.042C311.812,144.182,311.868,144.271,311.835,144.338Zm-.165-.122" transform="translate(-16.554 -66.036)"/>
    <path id="Path_4" data-name="Path 4" class="cls-2" d="M314.3,146.564c-.064.059-.189.032-.274-.062a.2.2,0,0,1-.039-.278c.066-.059.187-.032.275.062s.105.218.038.278Zm-.128-.137" transform="translate(-18.444 -67.637)"/>
    <path id="Path_5" data-name="Path 5" class="cls-2" d="M316.654,149.733c-.082.057-.216,0-.3-.116a.234.234,0,0,1,0-.319c.082-.057.215-.006.3.112A.237.237,0,0,1,316.654,149.733Zm0,0" transform="translate(-20.261 -70.011)"/>
    <path id="Path_6" data-name="Path 6" class="cls-2" d="M319.573,153.148c-.074.081-.229.059-.344-.053a.257.257,0,0,1-.076-.342c.074-.081.232-.058.347.053s.152.263.074.342Zm0,0" transform="translate(-22.452 -72.494)"/>
    <path id="Path_7" data-name="Path 7" class="cls-2" d="M323.717,155.625c-.033.105-.183.152-.335.108s-.251-.169-.22-.275.183-.158.336-.105.25.168.219.274Zm0,0" transform="translate(-25.59 -74.539)"/>
    <path id="Path_8" data-name="Path 8" class="cls-2" d="M328.6,156.323c0,.11-.125.2-.284.2s-.289-.086-.292-.194.126-.2.286-.2.289.086.289.2Zm0,0" transform="translate(-29.375 -75.158)"/>
    <path id="Path_9" data-name="Path 9" class="cls-2" d="M333.219,155.694c.019.105-.091.218-.249.248s-.3-.038-.319-.145.094-.221.248-.249.3.037.32.147Zm0,0" transform="translate(-32.962 -74.7)"/>
  </g>
</svg>
