<svg xmlns="http://www.w3.org/2000/svg" width="51" height="49.741" viewBox="0 0 51 49.741"><defs><style>.a,.b{fill:#0f0c0d;}.a{fill-rule:evenodd;}</style></defs><g transform="translate(-290.221 -58.431)"><path class="a" d="M315.721,58.431a25.5,25.5,0,0,0-8.062,49.7c1.274.236,1.742-.554,1.742-1.227,0-.608-.024-2.617-.035-4.748-7.094,1.543-8.591-3.009-8.591-3.009-1.16-2.947-2.831-3.731-2.831-3.731-2.314-1.583.174-1.55.174-1.55a5.36,5.36,0,0,1,3.909,2.628c2.274,3.9,5.965,2.771,7.421,2.12a5.432,5.432,0,0,1,1.619-3.41c-5.664-.644-11.618-2.831-11.618-12.6a9.869,9.869,0,0,1,2.627-6.844,9.164,9.164,0,0,1,.247-6.749s2.141-.685,7.014,2.614a24.177,24.177,0,0,1,12.771,0c4.867-3.3,7.006-2.614,7.006-2.614a9.152,9.152,0,0,1,.25,6.749,9.849,9.849,0,0,1,2.624,6.844c0,9.795-5.966,11.951-11.644,12.582a6.1,6.1,0,0,1,1.73,4.722c0,3.412-.03,6.158-.03,7,0,.679.459,1.474,1.752,1.224a25.5,25.5,0,0,0-8.076-49.694Z" transform="translate(0)"/><path class="b" d="M312.159,144.543c-.056.127-.256.165-.437.078s-.289-.256-.229-.383.255-.167.439-.08.291.258.227.385Zm-.314-.232" transform="translate(-12.279 -49.499)"/><path class="b" d="M314.622,146.9c-.122.112-.359.06-.521-.118a.39.39,0,0,1-.075-.53c.125-.113.356-.06.523.118s.2.415.072.53Zm-.243-.261" transform="translate(-13.71 -50.7)"/><path class="b" d="M316.981,150.147c-.156.109-.412.007-.57-.22s-.156-.5,0-.608.41-.011.57.214.156.5,0,.614Zm0,0" transform="translate(-15.063 -52.483)"/><path class="b" d="M319.985,153.549c-.14.154-.437.112-.655-.1a.49.49,0,0,1-.145-.652c.141-.154.441-.111.66.1s.289.5.14.652Zm0,0" transform="translate(-16.69 -54.466)"/><path class="b" d="M324.223,155.89c-.062.2-.348.29-.637.205s-.477-.321-.419-.523.348-.3.639-.2.477.319.417.522Zm0,0" transform="translate(-19.027 -55.983)"/><path class="b" d="M329.125,156.5c.007.21-.238.385-.541.388s-.551-.163-.555-.37.239-.385.544-.39.551.163.551.372Zm0,0" transform="translate(-21.843 -56.444)"/><path class="b" d="M333.735,155.832c.036.2-.174.416-.475.472s-.57-.073-.608-.276.178-.421.473-.475.571.071.61.28Zm0,0" transform="translate(-24.511 -56.103)"/></g></svg>