<svg xmlns="http://www.w3.org/2000/svg" width="54.413" height="65.386" viewBox="0 0 54.413 65.386">
  <defs>
    <style>
      .cls-1, .cls-2 {
        stroke: none;
      }

      .cls-2 {
        fill: #f2e863;
      }
    </style>
  </defs>
  <g id="Group_1" data-name="Group 1" transform="translate(-1746 -13.614)">
    <ellipse id="Ellipse_1" data-name="Ellipse 1" cx="22.135" cy="21.84" rx="22.135" ry="21.84" transform="translate(1751.313 35.32)"/>
    <g id="Path_1" data-name="Path 1" transform="translate(1773.165 13.614) rotate(45)">
      <path class="cls-1" d="M 5.893258571624756 37.9166374206543 C 2.925067186355591 37.87903213500977 0.5196043848991394 35.47055053710938 0.5001218914985657 32.50793075561523 L 3.951441764831543 9.395682334899902 L 3.956921815872192 9.358962059020996 L 3.956921815872192 9.321831703186035 C 3.956921815872192 6.314181804656982 6.403831958770752 3.867271900177002 9.411481857299805 3.867271900177002 L 9.447641372680664 3.867271900177002 L 9.483421325683594 3.862071752548218 L 32.60596466064453 0.5001144409179688 C 35.57875823974609 0.5189459323883057 37.99570083618164 2.91627049446106 38.03372573852539 5.874732971191406 L 32.00170135498047 26.29538154602051 L 31.98122215270996 26.36472129821777 L 31.98122215270996 26.43702125549316 C 31.98122215270996 29.43968200683594 29.53025245666504 31.88252258300781 26.51760101318359 31.88252258300781 L 26.44572257995605 31.88252258300781 L 26.37675094604492 31.90277099609375 L 5.893258571624756 37.9166374206543 Z"/>
      <path class="cls-2" d="M 32.63960266113281 1.000473022460938 L 9.483800888061523 4.367271423339844 L 9.411481857299805 4.367271423339844 C 6.679521560668945 4.367271423339844 4.456912994384766 6.589881896972656 4.456912994384766 9.321832656860352 L 4.456912994384766 9.396081924438477 L 1.000503540039062 32.54244613647461 C 1.037994384765625 35.19128799438477 3.176094055175781 37.34310531616211 5.826217651367188 37.41521453857422 L 26.37384033203125 31.38252258300781 L 26.51760101318359 31.38252258300781 C 29.25455093383789 31.38252258300781 31.48122215270996 29.16398239135742 31.48122215270996 26.4370231628418 L 31.48122215270996 26.29241180419922 L 37.53227233886719 5.807373046875 C 37.45911026000977 3.166946411132812 35.29856491088867 1.036777496337891 32.63960266113281 1.000473022460938 M 32.57056045532227 0 C 35.86418151855469 0 38.53418350219727 2.661891937255859 38.53418350219727 5.945503234863281 L 32.48122024536133 26.4370231628418 C 32.48122024536133 29.72063064575195 29.81122207641602 32.38252258300781 26.51760101318359 32.38252258300781 L 5.963623046875 38.41708374023438 C 2.670001983642578 38.41708374023438 0 35.75519180297852 0 32.47158050537109 L 3.456912994384766 9.321832656860352 C 3.456912994384766 6.038223266601562 6.117862701416016 3.367271423339844 9.411481857299805 3.367271423339844 L 32.57056045532227 0 Z"/>
    </g>
    <g id="Union_2" data-name="Union 2" transform="translate(1750.132 44.174)">
      <path class="cls-1" d="M 1.475690364837646 27.29459953308105 L 0.5000003576278687 25.5180606842041 L 0.5000003576278687 3.430946826934814 L 1.475690364837646 3.430946826934814 L 1.475690364837646 2.430946826934814 C 0.9376903772354126 2.430946826934814 0.5000003576278687 1.997886896133423 0.5000003576278687 1.46558690071106 C 0.5000003576278687 0.9331569075584412 0.9376903772354126 0.4999969303607941 1.475690364837646 0.4999969303607941 C 2.01369047164917 0.4999969303607941 2.451380252838135 0.9331569075584412 2.451380252838135 1.46558690071106 C 2.451380252838135 1.997886896133423 2.01369047164917 2.430946826934814 1.475690364837646 2.430946826934814 L 1.475690364837646 3.430946826934814 L 2.451380252838135 3.430946826934814 L 2.451380252838135 25.5180606842041 L 1.475690364837646 27.29459953308105 Z"/>
      <path class="cls-2" d="M 1.475690364837646 26.25591468811035 L 1.951380372047424 25.38977813720703 L 1.951380372047424 3.930946826934814 L 1.000000357627869 3.930946826934814 L 1.000000357627869 25.38977813720703 L 1.475690364837646 26.25591468811035 M 1.475690364837646 1.930946946144104 C 1.737990379333496 1.930946946144104 1.951380372047424 1.722186923027039 1.951380372047424 1.46558690071106 C 1.951380372047424 1.20885694026947 1.737990379333496 0.9999969005584717 1.475690364837646 0.9999969005584717 C 1.213390350341797 0.9999969005584717 1.000000357627869 1.20885694026947 1.000000357627869 1.46558690071106 C 1.000000357627869 1.722186923027039 1.213390350341797 1.930946946144104 1.475690364837646 1.930946946144104 M 1.475690364837646 28.3332576751709 L 3.648376605269732e-07 25.64631652832031 L 3.648376605269732e-07 2.930946826934814 L 2.951380252838135 2.930946826934814 L 2.951380252838135 25.64631652832031 L 1.475690364837646 28.3332576751709 Z M 1.475690364837646 2.930946826934814 C 0.6606103777885437 2.930946826934814 3.648376605269732e-07 2.274986982345581 3.648376605269732e-07 1.46558690071106 C 3.648376605269732e-07 0.6561869382858276 0.6606103777885437 -3.069763124585734e-06 1.475690364837646 -3.069763124585734e-06 C 2.290770292282104 -3.069763124585734e-06 2.951380252838135 0.6561869382858276 2.951380252838135 1.46558690071106 C 2.951380252838135 2.274986982345581 2.290770292282104 2.930946826934814 1.475690364837646 2.930946826934814 Z"/>
    </g>
  </g>
</svg>
